<?xml version="1.0" encoding="utf-8"?>
<!-- Generator: Adobe Illustrator 18.1.0, SVG Export Plug-In . SVG Version: 6.00 Build 0)  -->
<!DOCTYPE svg PUBLIC "-//W3C//DTD SVG 1.1//EN" "http://www.w3.org/Graphics/SVG/1.1/DTD/svg11.dtd">
<svg version="1.1" id="Layer_1" xmlns="http://www.w3.org/2000/svg" xmlns:xlink="http://www.w3.org/1999/xlink" x="0px" y="0px"
	 viewBox="-9.4 0 61.4 52" enable-background="new -9.4 0 61.4 52" xml:space="preserve">
<path fill="#FFFFFF" stroke="#FFFFFF" stroke-miterlimit="10" d="M48.5,40.9L35.4,23.5L45,11.9h2.1v-1h-5.7v1h2.1L30.6,27.2V11.9
	h1.8v-1h-5.1v1h0.9l-8.6,10.8l-8.8-10.8h1.2v-1H1.5v1h1.8l0,29l-1.8,0v1h10.4v-1h-1.9V13.1l9.5,11.7l9.7-12.2v28.2h-1.9v1h5.1v-1
	l-1.8,0l-0.1-11.8l0.8-0.9L41,40.9h-1.4v1h11.1v-1C50.6,40.9,48.5,40.9,48.5,40.9z M9,40.8H4.4V12H9C9,12,9,40.8,9,40.8z M42.2,40.9
	L32.1,27.3l2.6-3l12.5,16.6L42.2,40.9z"/>
</svg>
