<?xml version="1.0" encoding="utf-8"?>
<!-- Generator: Adobe Illustrator 18.1.0, SVG Export Plug-In . SVG Version: 6.00 Build 0)  -->
<!DOCTYPE svg PUBLIC "-//W3C//DTD SVG 1.1//EN" "http://www.w3.org/Graphics/SVG/1.1/DTD/svg11.dtd">
<svg version="1.1" id="Layer_1" xmlns="http://www.w3.org/2000/svg" xmlns:xlink="http://www.w3.org/1999/xlink" x="0px" y="0px"
	 viewBox="0 0 405.4 269.1" enable-background="new 0 0 405.4 269.1" xml:space="preserve">
<path fill="#FFFFFF" stroke="#FFFFFF" stroke-miterlimit="10" d="M378.4,250.8l-102.2-136l74.6-90.1h16.1v-7.8h-44.3v7.8h16
	L238.9,144V24.7h14.4v-7.8h-40v7.8h6.9l-67.4,84.4L84,24.7h9.1v-7.8H11.8v7.8H26l-0.2,226.2l-14-0.2v8.1h81.3v-8.1H78.5V34
	l74.1,91.6l75.6-94.8v220h-14.9v8.1h40v-8.1l-14.3,0.2l-0.7-92.2l6.5-7.2l74.6,99.2h-11.2v8.1h86.4v-8.1H378.4z M69.9,250.3H34.3
	V25.4h35.6V250.3z M329.3,250.8l-78.8-106.4l20.1-23.3l97.3,129.2L329.3,250.8z"/>
</svg>
